<?xml version="1.0" encoding="UTF-8"?>
<svg id="Layer_2" data-name="Layer 2" xmlns="http://www.w3.org/2000/svg" viewBox="0 0 1521.7 259.16">
  <g id="Layer_1-2" data-name="Layer 1">
    <g>
      <path d="M214.1,11.98h-36.8l-.1-.1c-15.6,26.7-32.8,52.9-48.9,79.4-6.3,10.4-14.7,22.7-20.4,33.1L36.9,12.48c-7.6-.1-15.3-.1-22.9-.1l-14,.3v194.6c11.9-.1,23.9-.1,35.8-.1l-.9-134.8c6.9,8.3,16.5,24.1,22.6,33.6,13.8,21.4,26.9,42.1,41.4,63h18.4l61.8-98.4c.3,13.2-.2,25.7,0,38.7v97.8h35.7c-.9-65.1-1.1-130.2-.7-195.1Z"/>
      <path d="M704.6,4.98l.4,75c-16.7-14.8-29.6-21.9-52.8-20.5-18.5.9-35.9,9.4-48,23.5-31.9,36.6-21.3,97.5,22.1,121.3,31.3,13.8,57.1,9,80.8-15.4v18.3h32.3V4.88h-34.8v.1ZM668,180.58c-51.4,2.7-62.7-65.3-23-87.6,3.8-2.2,10.1-3,14.6-3.7,57.6-2.7,61.9,83.8,8.4,91.3Z"/>
      <path d="M883.8,80.98c-15.8-18.1-35.2-23.6-58.8-20.7l-.1-.1c-45.2,7.2-67.9,45.6-60.8,89.4,3.3,20.1,14.5,38.1,31.1,49.8,23.8,16.7,56.7,16.1,79.6-1.9l9.1-8.9v18.6h32.8V62.88h-32.9v18.1ZM844.2,180.98c-58.2.4-63.5-84.9-6.1-91.6,52.5-3.3,64.6,81.5,6.1,91.6Z"/>
      <path d="M360.1,62.68v19.2c-13-14-24.8-21.1-44.5-22.1-5.7-.2-11.5-.1-17.2.4h0c-44.5,9.4-65.5,51.2-56.2,94.1,4.4,19.4,16.3,36.2,33,46.9,15.3,9.6,33.8,12.5,51.3,8.1,11.4-2.8,20.6-8.6,29.1-16.4l3.1-3.4,1.4.2c1.6,4.1.5,12.6.5,17.5h32.8l-.4-144.7-32.9.2ZM322.8,181.08c-43.9,1.2-58.9-41.8-38.4-76.2,5.8-9.8,18.6-14,29.6-15.6h0c51.7-5.1,65.3,79.6,8.8,91.8Z"/>
      <path d="M1268.1,58.68l.1-.1c-42.2,7.1-70.7,47-63.8,89.2,6.9,42.2,46.6,71,88.8,64.3,42.6-6.7,71.6-46.8,64.6-89.3-6.9-42.5-47.2-71.3-89.7-64.1ZM1284.2,180.68c-57.6,2.4-64.7-83.6-6.4-91.4h0c56.6-1.9,63.8,83.3,6.4,91.4Z"/>
      <path d="M1107.1,98.98c12.5-32.4.3-68.6-33.8-80.9-26.8-9.6-52.5-5.2-80.2-6.1-13.8-.2-31.7-.2-44.9.4h.1c6.9,12.9,29.4,43.8,38.6,57.1-.4-8.8-.6-17.7-.6-26.5,21.7-.1,65-4.4,80.5,10.2,5.8,5.5,9,13.1,9,21.1,0,8.7-3.7,17-10.1,22.9-13.6,12.4-35.5,10.9-52.8,10.9,21.3,30.8,42.4,61.8,63.3,92.9,12.1,18,25.9,37.5,37.4,55.6.7.7,1.4,1.3,2.1,2,11.3,1,30.4.4,41.2.4-28.6-42.6-57.7-84.9-87.3-126.8,16.3-6.6,31-16.4,37.5-33.2Z"/>
      <path d="M1487.1,207.08h34.6l-.2-61.1c-.1-14.9.9-32-2.2-46.5-6.1-28.4-29.3-41.1-56.7-40.1v.2c-21.5,1.6-32.3,7.4-45.7,24.3l-.2-20.9h-32.8v144.2h35l-.2-52.1c-.1-18.6-2.9-41.3,11.1-55.6,1-1.1,2-2.1,3.1-3.1,25.2-15.9,48.6-6.4,53.3,23.3,1.6,10,.9,21.5.9,31.8v55.6Z"/>
      <path d="M506,59.68c-3.2.1-6.5.3-9.7.5v.2c-16.6,3.1-27.6,8.6-37.5,23l-.2-20.5h-33.2l.5,144.4h34.4c-.2-16.2-.5-32.4-.4-48.5.1-22.9-4.4-51.9,19.3-65.2,9.4-3.9,20.3-6.5,30.2-2.5,7.4,2.9,12.5,9.2,15.5,16.4,7.1,17.1,3.9,78.6,3.9,99.7h34.3v-58.7c0-4.8-.3-11.6,0-16.2,2.9-39.1-10.9-73.6-57.1-72.6Z"/>
      <path d="M969,78.38c-3.4-4.8-14.3-20.7-18.1-24.7h0c.1,50.8-.5,102.8.2,153.4h35.8l-.4-21.9-.3-45.3h24.4c-13.7-20.6-27.6-41.1-41.6-61.5Z"/>
      <path d="M1177.9,62.48h-34c-1.1,4.7-.8,40.2-.7,47.4.5,32.1-.6,65.4.2,97.2h34.3c.7-15.4.2-34,.2-49.6V62.48Z"/>
      <path d="M1153.1.18c-12.7,5.6-20.1,16.9-12.9,30.3,2.9,5.3,7.9,9.3,13.8,10.8,4.5,1.2,7.9.6,12.4,0,6.8-2.9,11.7-5.8,14.7-13.1,2-4.9,1.9-10.4-.2-15.3-5.3-12.1-16.3-13.5-27.8-12.7Z"/>
    </g>
  </g>
</svg>