<svg version="1.1" xmlns="http://www.w3.org/2000/svg" viewBox="0 0 2048 2048" width="2048" height="2048" preserveAspectRatio="xMidYMid meet">
  <path fill="currentColor" d="M 441.328 910.997 L 478.158 910.873 C 477.776 975.935 478.006 1041 478.847 1106.06 L 443.111 1106.16 L 443.123 1008.25 C 442.969 995.268 443.43 982.747 443.128 969.582 L 381.334 1067.99 L 362.915 1068.12 C 348.383 1047.12 335.337 1026.43 321.562 1005.01 C 315.436 995.482 305.819 979.729 299.007 971.366 L 299.907 1106.18 C 287.962 1106.11 276.018 1106.15 264.075 1106.3 L 263.999 911.747 L 278.036 911.482 C 285.616 911.435 293.338 911.567 300.932 911.619 L 371.956 1023.49 C 377.701 1013.09 386.068 1000.81 392.391 990.415 C 408.507 963.924 425.655 937.752 441.328 910.997 z"/>
  <path fill="currentColor" d="M 968.555 903.857 L 1003.32 903.772 L 1003.29 1106.12 L 971.001 1106.18 L 970.952 1087.8 C 947.248 1112.17 921.428 1117.02 890.165 1103.23 C 846.81 1079.47 836.2 1018.56 868.036 981.915 C 880.166 967.849 897.52 959.355 916.069 958.405 C 939.283 956.988 952.125 964.068 968.908 978.863 L 968.555 903.857 z"/>
  <path fill="currentColor" d="M 1089.02 959.323 C 1112.65 956.459 1131.98 961.917 1147.77 980.069 L 1147.68 961.93 L 1180.72 961.86 L 1180.81 1106.15 L 1147.97 1106.24 L 1147.98 1087.67 L 1138.89 1096.58 C 1116.02 1114.56 1083.05 1115.19 1059.32 1098.48 C 1042.7 1086.75 1031.5 1068.82 1028.25 1048.73 C 1021.15 1004.88 1043.85 966.489 1089.02 959.323 z"/>
  <path fill="currentColor" d="M 562.393 959.166 C 568.105 958.671 573.843 958.537 579.572 958.767 C 599.225 959.719 611.096 966.861 624.033 980.829 L 624.08 961.675 L 656.92 961.425 L 657.293 1106.14 L 624.525 1106.19 C 624.522 1101.26 625.624 1092.73 624.063 1088.63 L 622.64 1088.41 L 619.538 1091.86 C 611.025 1099.71 601.797 1105.5 590.469 1108.26 C 572.984 1112.66 554.462 1109.75 539.165 1100.21 C 522.43 1089.52 510.58 1072.67 506.181 1053.3 C 496.844 1010.44 517.893 968.611 562.393 959.166 z"/>
  <path fill="currentColor" d="M 1532.06 957.661 C 1574.57 950.46 1614.82 979.225 1621.77 1021.77 C 1628.73 1064.32 1599.73 1104.41 1557.14 1111.12 C 1514.9 1117.78 1475.21 1089.07 1468.31 1046.86 C 1461.41 1004.66 1489.89 964.803 1532.06 957.661 z"/>
  <path fill="currentColor" d="M 1212.2 911.397 C 1225.45 910.788 1243.33 910.797 1257.07 911.004 C 1284.77 911.877 1310.51 907.501 1337.24 917.143 C 1371.33 929.443 1383.57 965.626 1371.08 998.059 C 1364.6 1014.88 1349.87 1024.66 1333.56 1031.23 C 1363.16 1073.14 1392.25 1115.4 1420.85 1158.01 C 1410.01 1158.1 1390.94 1158.65 1379.63 1157.61 C 1378.94 1156.94 1378.25 1156.26 1377.56 1155.59 C 1366.02 1137.45 1352.3 1118.02 1340.12 1100.01 C 1319.22 1068.91 1298.13 1037.95 1276.86 1007.1 C 1294.13 1007.12 1316.06 1008.59 1329.64 996.167 C 1336.08 990.298 1339.74 981.984 1339.71 973.274 C 1339.79 965.311 1336.53 957.678 1330.73 952.22 C 1315.22 937.598 1271.94 941.87 1250.19 941.998 C 1250.14 950.832 1250.35 959.666 1250.82 968.488 C 1241.62 955.211 1219.08 924.311 1212.2 911.397 z"/>
  <path fill="currentColor" d="M 1726.64 958.414 C 1754.07 957.425 1777.24 970.116 1783.32 998.502 C 1786.42 1013.02 1785.45 1030.06 1785.51 1044.97 L 1785.75 1106.06 L 1751.11 1106.06 L 1751.19 1050.47 C 1751.2 1040.21 1751.84 1028.71 1750.25 1018.63 C 1745.6 988.956 1722.11 979.468 1696.96 995.309 C 1695.89 996.319 1694.84 997.348 1693.81 998.395 C 1679.84 1012.66 1682.65 1035.42 1682.74 1053.99 L 1682.99 1106.04 L 1648.03 1106.05 L 1648.02 961.846 L 1680.77 961.782 L 1680.97 982.699 C 1694.37 965.81 1705.13 960.044 1726.64 958.414 z"/>
  <path fill="currentColor" d="M 760.267 959.212 C 763.51 958.977 766.758 958.81 770.009 958.712 C 816.188 957.728 829.961 992.179 827.115 1031.3 C 826.776 1035.95 827.098 1042.67 827.095 1047.5 L 827.084 1106.16 L 792.828 1106.17 C 792.896 1085.04 796.04 1023.62 788.969 1006.43 C 785.996 999.202 780.861 992.958 773.473 990.002 C 763.585 986.047 752.706 988.645 743.248 992.51 C 719.592 1005.83 724.086 1034.8 723.916 1057.72 C 723.796 1073.81 724.16 1090.07 724.3 1106.18 L 689.854 1106.18 L 689.403 961.737 L 722.622 961.727 L 722.791 982.223 C 732.729 967.8 743.665 962.323 760.267 959.212 z"/>
  <path fill="currentColor" d="M 1214.86 952.68 C 1218.71 956.648 1229.57 972.539 1232.97 977.428 C 1246.99 997.824 1260.84 1018.34 1274.52 1038.97 L 1250.09 1039.02 L 1250.37 1084.25 L 1250.77 1106.12 L 1215.02 1106.2 C 1214.34 1055.5 1214.91 1003.5 1214.86 952.68 z"/>
  <path fill="currentColor" d="M 1408 961.488 L 1441.95 961.44 L 1442.02 1056.5 C 1442.04 1072.09 1442.55 1090.68 1441.78 1106.09 L 1407.51 1106.17 C 1406.76 1074.25 1407.78 1040.98 1407.28 1008.93 C 1407.17 1001.68 1406.87 966.253 1408 961.488 z"/>
  <path fill="currentColor" d="M 1417.05 899.153 C 1428.54 898.31 1439.56 899.759 1444.82 911.885 C 1446.93 916.762 1447 922.278 1445.04 927.213 C 1442.05 934.485 1437.14 937.421 1430.33 940.29 C 1425.79 940.905 1422.41 941.462 1417.92 940.263 C 1412.03 938.716 1407.03 934.809 1404.12 929.461 C 1396.92 916.071 1404.3 904.715 1417.05 899.153 z"/>
</svg>
